<svg xmlns="http://www.w3.org/2000/svg" viewBox="0 0 307.27 57.66"><defs><style>.cls-1{fill:#3b3a3c;}.cls-2{fill:#c0202f;}.cls-3{fill:#318bad;}</style></defs><g id="Layer_2" data-name="Layer 2"><g id="Layer_1-2" data-name="Layer 1"><polygon class="cls-1" points="291.86 12.08 288.41 15.92 288.4 15.93 284.97 19.77 271.51 34.86 268.92 37.74 266.32 40.65 263.74 43.54 254.52 53.77 251.09 57.63 235.53 57.63 238.98 53.77 255.96 34.85 258.55 31.97 261.15 29.05 263.73 26.17 269.4 19.77 274.59 19.77 266.32 29.06 263.74 31.96 261.14 34.85 258.55 37.74 244.15 53.77 249.35 53.77 261.15 40.65 263.73 37.76 266.33 34.85 268.91 31.97 279.78 19.77 283.22 15.93 267.72 15.93 271.16 12.08 291.86 12.08"/><polygon class="cls-2" points="263.73 26.17 261.15 29.05 261.14 29.05 263.73 26.17"/><polygon class="cls-2" points="291.86 57.63 276.32 57.63 272.87 53.77 266.32 46.44 266.98 45.7 268.91 43.54 278.03 53.77 283.25 53.77 271.51 40.64 274.09 37.74 288.4 53.77 291.86 57.63"/><polygon class="cls-2" points="249.37 15.93 244.16 15.93 255.95 29.06 253.37 31.96 239 15.93 235.54 12.08 251.09 12.08 254.53 15.93 261.14 23.28 258.55 26.17 249.37 15.93"/><polygon class="cls-2" points="258.55 31.97 255.96 34.85 255.95 34.85 256.63 34.09 258.54 31.96 258.55 31.97"/><path class="cls-3" d="M104.34,12.06l-16,41.07a7.06,7.06,0,0,1-6.58,4.49h0a7.06,7.06,0,0,1-6.58-4.49l-16-41.07H68l13.51,34.6a.32.32,0,0,0,.41.19.3.3,0,0,0,.19-.19L95.6,12.06Z"/><path class="cls-3" d="M37,12.05A21.43,21.43,0,0,0,15.6,33.44V57.62h8.2V33.44a13.2,13.2,0,0,1,26.4,0V57.62h8.2V33.44A21.42,21.42,0,0,0,37,12.05Z"/><path class="cls-3" d="M144.66,12.05a21.42,21.42,0,0,0-21.4,21.39V57.62h8.2V33.44a13.2,13.2,0,0,1,26.39,0V57.62h8.2V33.44A21.41,21.41,0,0,0,144.66,12.05Z"/><path class="cls-3" d="M194.06,49.45A14.58,14.58,0,1,1,206.11,26.7h9.2a22.78,22.78,0,1,0,0,16.35h-9.2A14.56,14.56,0,0,1,194.06,49.45Z"/><rect class="cls-3" y="12.07" width="8.2" height="45.56"/><circle class="cls-3" cx="4.1" cy="4.09" r="4.09"/><rect class="cls-3" x="108.73" y="12.07" width="8.2" height="45.56"/><circle class="cls-3" cx="112.83" cy="4.09" r="4.09"/><rect class="cls-3" x="221.24" y="12.07" width="8.2" height="45.56"/><circle class="cls-3" cx="225.34" cy="4.09" r="4.09"/><path class="cls-1" d="M297.47,0V1.1h-2.14v7H294v-7h-2.16V0Z"/><path class="cls-1" d="M307.27,0v8H306V2.56L303.5,8.07h-.92l-2.46-5.51V8.07H298.8V0h1.42l2.83,6.31L305.86,0Z"/></g></g></svg>