<svg xmlns="http://www.w3.org/2000/svg" viewBox="0 0 500 372.61"><rect y="327.45" width="500" height="0.25" fill="#ebebeb"/><rect x="416.78" y="343.54" width="33.12" height="0.25" fill="#ebebeb"/><rect x="322.53" y="346.26" width="8.69" height="0.25" fill="#ebebeb"/><rect x="396.59" y="334.26" width="19.19" height="0.25" fill="#ebebeb"/><rect x="52.46" y="335.94" width="43.19" height="0.25" fill="#ebebeb"/><rect x="104.56" y="335.94" width="6.33" height="0.25" fill="#ebebeb"/><rect x="131.47" y="340.16" width="93.68" height="0.25" fill="#ebebeb"/><path d="M237,282.85H43.91a5.71,5.71,0,0,1-5.7-5.71V5.71A5.71,5.71,0,0,1,43.91,0H237a5.71,5.71,0,0,1,5.71,5.71V277.14A5.71,5.71,0,0,1,237,282.85ZM43.91.25a5.46,5.46,0,0,0-5.45,5.46V277.14a5.46,5.46,0,0,0,5.45,5.46H237a5.47,5.47,0,0,0,5.46-5.46V5.71A5.47,5.47,0,0,0,237,.25Z" fill="#ebebeb"/><path d="M453.31,282.85H260.21a5.72,5.72,0,0,1-5.71-5.71V5.71A5.72,5.72,0,0,1,260.21,0h193.1A5.71,5.71,0,0,1,459,5.71V277.14A5.71,5.71,0,0,1,453.31,282.85ZM260.21.25a5.47,5.47,0,0,0-5.46,5.46V277.14a5.47,5.47,0,0,0,5.46,5.46h193.1a5.47,5.47,0,0,0,5.46-5.46V5.71A5.47,5.47,0,0,0,453.31.25Z" fill="#ebebeb"/><path d="M411.48,292.86s-7.68-15,1.1-29.86,11.32-18.32,5.72-21.36-8.16,11.86-8.16,11.86-4.72-10.25-.82-21,6.34-28.2,1-30.07-1,21.79-5.64,29.86c0,0-3.87-9-4.51-17.6s.36-22.37-3.84-25.9-6.9-1.09-2.77,17.92a179.12,179.12,0,0,1,4.1,34.47s-9.12-24.94-15.24-25.67-6.11,7.35-.87,14.36,15.34,19.55,17,26c0,0-10-18.77-19-13s7.84,17.08,15.35,21.18,12.71,29.77,12.71,29.77Z" fill="#e0e0e0"/><path d="M405.41,299s7.49-15.14-1.49-29.85-11.57-18.16-6-21.28,8.32,11.75,8.32,11.75,4.58-10.31.54-21-6.71-28.11-1.42-30,1.31,21.77,6,29.78c0,0,3.76-9,4.28-17.66s-.66-22.36,3.5-26,6.87-1.17,3,17.89a179.67,179.67,0,0,0-3.64,34.52s8.79-25.06,14.9-25.87,6.21,7.27,1.06,14.34-15.08,19.76-16.65,26.24c0,0,9.76-18.9,18.84-13.27s-7.61,17.19-15.06,21.39S409.29,300,409.29,300Z" fill="#e6e6e6"/><polygon points="439.93 288.24 378.11 288.24 383.11 327.91 434.93 327.91 439.93 288.24" fill="#f0f0f0"/><rect x="217.04" y="37.11" width="112.62" height="124.62" fill="#e9e9e9"/><rect x="222" y="42.05" width="103" height="115" fill="#f4f4f4"/><polygon points="251.11 42.05 222 151.07 222 92.05 235.32 42.05 251.11 42.05" fill="#fff"/><polygon points="264.12 42.05 233.42 157.05 227.63 157.05 258.33 42.05 264.12 42.05" fill="#fff"/><polygon points="325 73.41 325 132.44 318.48 157.05 302.69 157.05 325 73.41" fill="#fff"/><rect x="271.35" y="37.11" width="4" height="124.62" fill="#e9e9e9"/><rect x="219" y="62.4" width="108.5" height="4" fill="#e9e9e9"/><rect x="63.04" y="37.11" width="112.62" height="124.62" fill="#e9e9e9"/><rect x="68" y="42.05" width="103" height="115" fill="#f4f4f4"/><polygon points="97.11 42.05 68 151.07 68 92.05 81.32 42.05 97.11 42.05" fill="#fff"/><polygon points="110.12 42.05 79.42 157.05 73.63 157.05 104.33 42.05 110.12 42.05" fill="#fff"/><polygon points="171 73.41 171 132.44 164.48 157.05 148.69 157.05 171 73.41" fill="#fff"/><rect x="117.35" y="37.11" width="4" height="124.62" fill="#e9e9e9"/><rect x="65" y="62.4" width="108.5" height="4" fill="#e9e9e9"/><ellipse cx="250" cy="361.29" rx="193.89" ry="11.32" fill="#f5f5f5"/><path d="M381.66,327.91H228.17a6.52,6.52,0,0,1-6.59-7.16L240.93,72.51a7.87,7.87,0,0,1,7.71-7.15H402.12a6.52,6.52,0,0,1,6.6,7.15L389.37,320.75A7.87,7.87,0,0,1,381.66,327.91Z" fill="#2e353a"/><path d="M381.66,327.91H228.17a6.52,6.52,0,0,1-6.59-7.16L240.93,72.51a7.87,7.87,0,0,1,7.71-7.15H402.12a6.52,6.52,0,0,1,6.6,7.15L389.37,320.75A7.87,7.87,0,0,1,381.66,327.91Z" fill="#fff" opacity="0.2"/><path d="M360.87,81.59h-73.5a2.28,2.28,0,0,1-2.31-2.5l1.13-14.52a2.76,2.76,0,0,1,2.7-2.5h73.5a2.27,2.27,0,0,1,2.3,2.5l-1.13,14.52A2.75,2.75,0,0,1,360.87,81.59Z" fill="#407bff"/><path d="M360.87,81.59h-73.5a2.28,2.28,0,0,1-2.31-2.5l1.13-14.52a2.76,2.76,0,0,1,2.7-2.5h73.5a2.27,2.27,0,0,1,2.3,2.5l-1.13,14.52A2.75,2.75,0,0,1,360.87,81.59Z" opacity="0.2" style="isolation:isolate"/><path d="M331,66.58h-11.5l.45-5.76a6.31,6.31,0,0,1,6.19-5.75h0a5.25,5.25,0,0,1,5.31,5.75Z" fill="#407bff"/><path d="M331,66.58h-11.5l.45-5.76a6.31,6.31,0,0,1,6.19-5.75h0a5.25,5.25,0,0,1,5.31,5.75Z" fill="#fff" opacity="0.4"/><polygon points="379.59 317.55 231.85 317.55 250.71 75.72 398.44 75.72 379.59 317.55" fill="#fff"/><path d="M347.2,88.37H300a5.37,5.37,0,0,1-5.43-5.89l.6-7.68a6.49,6.49,0,0,1,6.35-5.9h47.21a5.39,5.39,0,0,1,5.44,5.9l-.6,7.68A6.5,6.5,0,0,1,347.2,88.37ZM301.34,70.9a4.28,4.28,0,0,0-4.19,3.9l-.6,7.68a3.54,3.54,0,0,0,3.58,3.89h47.22a4.29,4.29,0,0,0,4.2-3.89l.6-7.68a3.57,3.57,0,0,0-3.59-3.9Z" fill="#407bff"/><g opacity="0.4"><path d="M347.2,88.37H300a5.37,5.37,0,0,1-5.43-5.89l.6-7.68a6.49,6.49,0,0,1,6.35-5.9h47.21a5.39,5.39,0,0,1,5.44,5.9l-.6,7.68A6.5,6.5,0,0,1,347.2,88.37ZM301.34,70.9a4.28,4.28,0,0,0-4.19,3.9l-.6,7.68a3.54,3.54,0,0,0,3.58,3.89h47.22a4.29,4.29,0,0,0,4.2-3.89l.6-7.68a3.57,3.57,0,0,0-3.59-3.9Z" fill="#fff"/></g><path d="M344.76,73.33h-40A1.26,1.26,0,0,1,303.49,72l.31-4a1.52,1.52,0,0,1,1.49-1.37h40A1.24,1.24,0,0,1,346.55,68l-.31,4A1.51,1.51,0,0,1,344.76,73.33Z" fill="#407bff"/><polygon points="378.63 111.05 266.63 111.05 267.58 98.83 379.58 98.83 378.63 111.05" fill="#407bff"/><polygon points="333.3 128.06 258.74 128.06 258.99 124.91 333.55 124.91 333.3 128.06" fill="#407bff"/><polygon points="332.6 137.16 258.04 137.16 258.28 134 332.84 134 332.6 137.16" fill="#407bff"/><polygon points="331.89 146.25 257.33 146.25 257.57 143.1 332.13 143.1 331.89 146.25" fill="#407bff"/><polygon points="331.18 155.35 256.62 155.35 256.86 152.19 331.42 152.19 331.18 155.35" fill="#407bff"/><polygon points="380.1 155.35 349.68 155.35 352.06 124.91 382.48 124.91 380.1 155.35" fill="#407bff"/><text transform="matrix(1, 0, -0.08, 1, 359.32, 150.55)" font-size="27.94" fill="#fff" font-family="Cabin-Regular, Cabin Regular">?</text><polygon points="329.71 174.13 255.15 174.13 255.4 170.97 329.96 170.97 329.71 174.13" fill="#407bff"/><polygon points="329 183.22 254.44 183.22 254.69 180.07 329.25 180.07 329 183.22" fill="#407bff"/><polygon points="328.3 192.32 253.74 192.32 253.98 189.16 328.54 189.16 328.3 192.32" fill="#407bff"/><polygon points="327.59 201.41 253.03 201.41 253.27 198.26 327.83 198.26 327.59 201.41" fill="#407bff"/><polygon points="376.51 201.41 346.09 201.41 348.46 170.97 378.88 170.97 376.51 201.41" fill="#407bff"/><text transform="matrix(1, 0, -0.08, 1, 355.73, 196.62)" font-size="27.94" fill="#fff" font-family="Cabin-Regular, Cabin Regular">?</text><polygon points="326.12 220.19 251.56 220.19 251.81 217.03 326.37 217.03 326.12 220.19" fill="#407bff"/><polygon points="325.41 229.29 250.85 229.29 251.1 226.13 325.66 226.13 325.41 229.29" fill="#407bff"/><polygon points="324.7 238.38 250.15 238.38 250.39 235.23 324.95 235.23 324.7 238.38" fill="#407bff"/><polygon points="324 247.48 249.44 247.48 249.68 244.32 324.24 244.32 324 247.48" fill="#407bff"/><polygon points="372.92 247.48 342.5 247.48 344.87 217.03 375.29 217.03 372.92 247.48" fill="#407bff"/><text transform="matrix(1, 0, -0.08, 1, 352.14, 242.68)" font-size="27.94" fill="#fff" font-family="Cabin-Regular, Cabin Regular">?</text><polygon points="322.53 266.26 247.97 266.26 248.22 263.1 322.78 263.1 322.53 266.26" fill="#407bff"/><polygon points="321.82 275.35 247.26 275.35 247.51 272.2 322.07 272.2 321.82 275.35" fill="#407bff"/><polygon points="321.11 284.45 246.55 284.45 246.8 281.29 321.36 281.29 321.11 284.45" fill="#407bff"/><polygon points="320.4 293.55 245.84 293.55 246.09 290.39 320.65 290.39 320.4 293.55" fill="#407bff"/><polygon points="369.33 293.55 338.91 293.55 341.28 263.1 371.7 263.1 369.33 293.55" fill="#407bff"/><text transform="matrix(1, 0, -0.08, 1, 348.55, 288.75)" font-size="27.94" fill="#fff" font-family="Cabin-Regular, Cabin Regular">?</text><polygon points="378.63 111.05 266.63 111.05 267.58 98.83 379.58 98.83 378.63 111.05" fill="#fff" opacity="0.7"/><polygon points="333.3 128.06 258.74 128.06 258.99 124.91 333.55 124.91 333.3 128.06" fill="#fff" opacity="0.7"/><polygon points="332.6 137.16 258.04 137.16 258.28 134 332.84 134 332.6 137.16" fill="#fff" opacity="0.7"/><polygon points="331.89 146.25 257.33 146.25 257.57 143.1 332.13 143.1 331.89 146.25" fill="#fff" opacity="0.7"/><polygon points="331.18 155.35 256.62 155.35 256.86 152.19 331.42 152.19 331.18 155.35" fill="#fff" opacity="0.7"/><polygon points="380.1 155.35 349.68 155.35 352.06 124.91 382.48 124.91 380.1 155.35" fill="#fff" opacity="0.7"/><polygon points="329.71 174.13 255.15 174.13 255.4 170.97 329.96 170.97 329.71 174.13" fill="#fff" opacity="0.7"/><polygon points="329 183.22 254.44 183.22 254.69 180.07 329.25 180.07 329 183.22" fill="#fff" opacity="0.7"/><polygon points="328.3 192.32 253.74 192.32 253.98 189.16 328.54 189.16 328.3 192.32" fill="#fff" opacity="0.7"/><polygon points="327.59 201.41 253.03 201.41 253.27 198.26 327.83 198.26 327.59 201.41" fill="#fff" opacity="0.7"/><polygon points="376.51 201.41 346.09 201.41 348.46 170.97 378.88 170.97 376.51 201.41" fill="#fff" opacity="0.7"/><polygon points="326.12 220.19 251.56 220.19 251.81 217.03 326.37 217.03 326.12 220.19" fill="#fff" opacity="0.7"/><polygon points="325.41 229.29 250.85 229.29 251.1 226.13 325.66 226.13 325.41 229.29" fill="#fff" opacity="0.7"/><polygon points="324.7 238.38 250.15 238.38 250.39 235.23 324.95 235.23 324.7 238.38" fill="#fff" opacity="0.7"/><polygon points="324 247.48 249.44 247.48 249.68 244.32 324.24 244.32 324 247.48" fill="#fff" opacity="0.7"/><polygon points="372.92 247.48 342.5 247.48 344.87 217.03 375.29 217.03 372.92 247.48" fill="#fff" opacity="0.7"/><polygon points="322.53 266.26 247.97 266.26 248.22 263.1 322.78 263.1 322.53 266.26" fill="#fff" opacity="0.7"/><polygon points="321.82 275.35 247.26 275.35 247.51 272.2 322.07 272.2 321.82 275.35" fill="#fff" opacity="0.7"/><polygon points="321.11 284.45 246.55 284.45 246.8 281.29 321.36 281.29 321.11 284.45" fill="#fff" opacity="0.7"/><polygon points="320.4 293.55 245.84 293.55 246.09 290.39 320.65 290.39 320.4 293.55" fill="#fff" opacity="0.7"/><polygon points="369.33 293.55 338.91 293.55 341.28 263.1 371.7 263.1 369.33 293.55" fill="#fff" opacity="0.7"/><path d="M200,202.05v27.54a21,21,0,0,1-5.85,14.57l-25.7,26.89H183l26.7-26.28a21.08,21.08,0,0,0,6.3-15V202.05Z" fill="#407bff"/><path d="M216,202.05v27.69a20.24,20.24,0,0,1-.52,4.61,20.91,20.91,0,0,1-5.78,10.42L183,271.05H168.45l25.7-26.89A21,21,0,0,0,200,229.59V202.05Z" fill="#fff" opacity="0.4"/><path d="M216,202.05v27.69a20.24,20.24,0,0,1-.52,4.61L200,228.1v-26Z" opacity="0.2" style="isolation:isolate"/><path d="M158.34,274.05,136.8,356.11a3.48,3.48,0,0,1-3.37,2.6H94.94a2.07,2.07,0,0,1-1.64-.8,2.05,2.05,0,0,1-.36-1.79l21.55-82.07h-4.14L89.07,355.1a6.07,6.07,0,0,0,5.87,7.61h38.49a7.48,7.48,0,0,0,7.24-5.58l21.8-83.08Z" fill="#407bff"/><g opacity="0.4" style="isolation:isolate"><path d="M158.34,274.05,136.8,356.11a3.48,3.48,0,0,1-3.37,2.6H94.94a2.07,2.07,0,0,1-1.64-.8,2.05,2.05,0,0,1-.36-1.79l21.55-82.07h-4.14L89.07,355.1a6.07,6.07,0,0,0,5.87,7.61h38.49a7.48,7.48,0,0,0,7.24-5.58l21.8-83.08Z" fill="#fff"/></g><polygon points="167.15 362.71 143.6 272.92 139.73 273.93 163.01 362.71 167.15 362.71" fill="#407bff"/><polygon points="215.15 362.71 191.6 272.92 187.73 273.93 211.01 362.71 215.15 362.71" fill="#407bff"/><g opacity="0.5"><polygon points="167.15 362.71 143.6 272.92 139.73 273.93 163.01 362.71 167.15 362.71" fill="#fff"/></g><g opacity="0.5"><polygon points="215.15 362.71 191.6 272.92 187.73 273.93 211.01 362.71 215.15 362.71" fill="#fff"/></g><polygon points="110.35 274.05 114.49 274.05 111.24 286.42 107.41 285.25 110.35 274.05" opacity="0.2" style="isolation:isolate"/><polygon points="143.6 272.92 148.95 293.33 144.46 291.97 139.73 273.93 143.6 272.92" opacity="0.2" style="isolation:isolate"/><polygon points="158.34 274.05 162.47 274.05 155.69 299.95 151.85 298.78 158.34 274.05" opacity="0.2" style="isolation:isolate"/><polygon points="201.05 309.2 196.54 307.82 187.73 274.18 191.6 273.08 201.05 309.2" opacity="0.2" style="isolation:isolate"/><path d="M106.7,275.42,88,174.19l-.25-1.53a6.57,6.57,0,0,1,1.35-5.41,6.13,6.13,0,0,1,4.81-2.2h40.48a8.65,8.65,0,0,1,8.06,6.92l.3,1.71,18.69,101-3.94.73L138.71,174.1l-.24-1.42a4.62,4.62,0,0,0-4.12-3.63H93.87a2.18,2.18,0,0,0-1.74.76,2.63,2.63,0,0,0-.48,2.17l.28,1.67,18.71,101Z" fill="#407bff"/><g opacity="0.5" style="isolation:isolate"><path d="M106.7,275.42,88,174.19l-.25-1.53a6.57,6.57,0,0,1,1.35-5.41,6.13,6.13,0,0,1,4.81-2.2h40.48a8.65,8.65,0,0,1,8.06,6.92l.3,1.71,18.69,101-3.94.73L138.71,174.1l-.24-1.42a4.62,4.62,0,0,0-4.12-3.63H93.87a2.18,2.18,0,0,0-1.74.76,2.63,2.63,0,0,0-.48,2.17l.28,1.67,18.71,101Z" fill="#fff"/></g><path d="M114.88,265.38h76.93a5,5,0,0,1,5,5v6.69a0,0,0,0,1,0,0H109.88a0,0,0,0,1,0,0v-6.69A5,5,0,0,1,114.88,265.38Z" fill="#407bff"/><rect x="106.67" y="271.23" width="93.35" height="5.84" rx="2.01" fill="#407bff"/><rect x="106.67" y="271.23" width="93.35" height="5.84" rx="2.01" fill="#fff" opacity="0.6" style="isolation:isolate"/><polygon points="148.33 215.05 97.5 215.05 89.92 174.05 140.74 174.05 148.26 214.67 148.33 215.05" fill="#407bff"/><path d="M198.33,127.68s-6.39-14.85-6.94-16.43.1-9.63-.39-11.06-7.91-2.37-9.48-2.18-.19,12.59.46,13.58a18,18,0,0,0,2.85,2.72l5.65,17Z" fill="#b97964"/><path d="M166,155.69c4.36.69,22.21,3.26,26.2.61,3.22-2.15-5.85-37-5.85-37l8.07-3.29s19.17,42.21,8.93,51.86c-5.2,4.9-19.82,6.14-40.85,6.14Z" fill="#407bff"/><path d="M166,155.69c4.36.69,22.21,3.26,26.2.61,3.22-2.15-5.85-37-5.85-37l8.07-3.29s19.17,42.21,8.93,51.86c-5.2,4.9-19.82,6.14-40.85,6.14Z" fill="#fff" opacity="0.8"/><path d="M173.39,173.91c-3.1.09-6.41.13-9.89.13l3-11.49A25.76,25.76,0,0,1,173.39,173.91Z" opacity="0.1" style="isolation:isolate"/><line x1="191.17" y1="180.04" x2="212.33" y2="202.41" fill="none" stroke="#2e353a" stroke-miterlimit="10" stroke-width="2"/><path d="M176,193.21s16.15-.5,17.83-.66,8.67-4.17,10.17-4.34,5.5,6.17,6,7.67-11.33,5.5-12.5,5.33a17.92,17.92,0,0,1-3.67-1.43L176,201.88Z" fill="#b97964"/><polygon points="166.5 354.88 174.47 353.78 175.57 334.85 167.62 335.95 166.5 354.88" fill="#b97964"/><path d="M175.07,352.82l-9-.56a.58.58,0,0,0-.63.51h0l-.88,7.1a1.42,1.42,0,0,0,1.31,1.5c3.14.15,4.65.06,8.61.27,2.44.15,7.23.67,10.58.34s2.94-3.63,1.5-3.79c-3.44-.39-8-2.91-10.14-4.83A2.25,2.25,0,0,0,175.07,352.82Z" fill="#2e353a"/><path d="M177.83,354.36a9.6,9.6,0,0,1-2.12-.42.17.17,0,0,1-.14-.15.21.21,0,0,1,.09-.18c.27-.17,2.64-1.57,3.6-1.13a.67.67,0,0,1,.39.56,1,1,0,0,1-.29,1A2.11,2.11,0,0,1,177.83,354.36Zm1.27-1.51c-.51-.24-1.89.35-2.86.89,1.42.37,2.47.39,2.88,0a.68.68,0,0,0,.17-.65.34.34,0,0,0-.19-.28Z" fill="#407bff"/><path d="M175.75,354h-.08a.25.25,0,0,1-.1-.16c0-.07,0-2.41.82-3.15a1,1,0,0,1,.82-.21.72.72,0,0,1,.64.61c.13.88-1.17,2.49-2,2.91A.12.12,0,0,1,175.75,354Zm1.3-3.12a.56.56,0,0,0-.41.14c-.52.44-.65,1.75-.68,2.51a3.92,3.92,0,0,0,1.52-2.35c0-.11-.07-.24-.34-.29Z" fill="#407bff"/><polygon points="167.62 335.95 175.57 334.86 174.94 345.68 167 346.38 167.62 335.95" opacity="0.2" style="isolation:isolate"/><path d="M166.82,243.56l-1.94-12.18-44.66-2.67s-4.75,25.34-1.1,32.09c6.51,12.05,41.62,6,51.89,7.15-6.14,25.11-5.54,74.18-5.54,74.18l14.67,1.12s11.29-52.88,13.57-78C195.25,248.3,181.2,248.72,166.82,243.56Z" fill="#2e353a"/><polygon points="163.75 342.82 181.38 343.98 182.89 336.43 163.52 335.53 163.75 342.82" fill="#407bff"/><polygon points="184.88 347.8 192.9 348.39 197.92 330.1 189.91 329.52 184.88 347.8" fill="#b97964"/><path d="M193.69,347.58,185,345.16a.57.57,0,0,0-.72.36h0l-2.34,6.76a1.41,1.41,0,0,0,1,1.74c3,.8,4.53,1,8.36,2.07,2.35.64,6.93,2.15,10.28,2.53s3.63-2.94,2.25-3.4c-3.28-1.09-7.2-4.51-8.91-6.83A2.23,2.23,0,0,0,193.69,347.58Z" fill="#2e353a"/><path d="M196.07,349.66a9.47,9.47,0,0,1-2-.85.16.16,0,0,1-.1-.17.2.2,0,0,1,.12-.17c.29-.1,2.91-1,3.75-.35a.68.68,0,0,1,.28.62,1,1,0,0,1-.51.95A2.08,2.08,0,0,1,196.07,349.66Zm1.55-1.21c-.45-.34-1.92-.05-3,.27,1.31.66,2.34.9,2.8.64a.66.66,0,0,0,.31-.6.31.31,0,0,0-.13-.31Z" fill="#407bff"/><path d="M194.12,348.82a.08.08,0,0,1-.08,0,.17.17,0,0,1-.06-.16c0-.07.47-2.37,1.45-2.92a1,1,0,0,1,.84,0,.73.73,0,0,1,.51.73c-.07.89-1.67,2.19-2.57,2.43A.11.11,0,0,1,194.12,348.82ZM196,346a.54.54,0,0,0-.43.06c-.6.32-1,1.58-1.19,2.31.82-.38,1.9-1.4,2-2,0-.11,0-.25-.27-.36Z" fill="#407bff"/><polygon points="189.91 329.52 197.92 330.11 195.05 340.57 187.13 339.6 189.91 329.52" opacity="0.2" style="isolation:isolate"/><path d="M200.64,339.28l-14.12-4.15s8.43-47.58,17-64.08c-.64-.21-1.49-.48-2.54-.79-1.89-.57-4.4-1.28-7.35-2.1-20.52-5.69-62.11-16.36-62.11-16.36l19-17.73s75.68,11.54,77.25,31.48C228.5,275.14,200.64,339.28,200.64,339.28Z" fill="#2e353a"/><polygon points="184.7 335.44 201.7 340.25 204.75 333.18 185.99 328.26 184.7 335.44" fill="#407bff"/><path d="M201,270.26c-1.89-.57-4.4-1.28-7.35-2.1.59-4.84.6-10.39-1.73-13.22-4.63-5.64-16.54-8.95-23.32-10.15-5.67-1-24.72-3-24.72-3s24.72-2.37,50,5C206.32,250.45,203.89,262.66,201,270.26Z" opacity="0.2" style="isolation:isolate"/><path d="M166,155.69s6.48,24-1.09,75.69c-14.11-.3-37.82-.85-44.69-1-.17-7.2,5.14-42.48-1.07-76.51a93,93,0,0,1,13.53-1.34,171.77,171.77,0,0,1,19.91.43A87.58,87.58,0,0,1,166,155.69Z" fill="#407bff"/><path d="M166,155.69s6.48,24-1.09,75.69c-14.11-.3-37.82-.85-44.69-1-.17-7.2,5.14-42.48-1.07-76.51a93,93,0,0,1,13.53-1.34,171.77,171.77,0,0,1,19.91.43A87.58,87.58,0,0,1,166,155.69Z" fill="#fff" opacity="0.7"/><path d="M134.83,197.72c-4-.88-8.77-4.73-12.7-8.53,0-6.76-.33-13.95-1.06-21.28C126.63,176.14,141.69,199.23,134.83,197.72Z" opacity="0.1" style="isolation:isolate"/><path d="M119.12,153.87c-15.29,5.51,11.55,46.91,19.88,51.18s50.67-4.67,50.67-4.67L188,191.82s-37.46,1-40.91.08-11.65-18.52-16.37-26.85A26.64,26.64,0,0,0,119.12,153.87Z" fill="#407bff"/><path d="M119.12,153.87c-15.29,5.51,11.55,46.91,19.88,51.18s50.67-4.67,50.67-4.67L188,191.82s-37.46,1-40.91.08-11.65-18.52-16.37-26.85A26.64,26.64,0,0,0,119.12,153.87Z" fill="#fff" opacity="0.8"/><polygon points="185 191.05 187.17 202.41 191.17 201.05 189.67 191.05 185 191.05" fill="#407bff"/><polygon points="185 191.05 187.17 202.41 191.17 201.05 189.67 191.05 185 191.05" fill="#fff" opacity="0.7"/><polygon points="186.08 121.83 196.84 117.57 194.75 113.89 185.2 117.24 186.08 121.83" fill="#407bff"/><polygon points="186.08 121.83 196.84 117.57 194.75 113.89 185.2 117.24 186.08 121.83" fill="#fff" opacity="0.7"/><path d="M130.24,152.63s.29,4.67,9.46,9.17l6.34-4.59s1.81,11.71,3,20.46c0,0-.08-14-1.28-19.37l4.85,1.72s-4.13-7.1-11.16-8.72S130.24,152.63,130.24,152.63Z" opacity="0.1" style="isolation:isolate"/><path d="M135.1,130.21c1.12,6.43,2.12,18.19-2.45,22.37L146,156.3l6.52-3.29c-7.11-1.86-6.81-7.16-5.46-12.11Z" fill="#b97964"/><path d="M140,134.57l7.1,6.33a21.07,21.07,0,0,0-.69,3.52c-2.72-.45-6.4-3.53-6.63-6.39A9.38,9.38,0,0,1,140,134.57Z" opacity="0.2" style="isolation:isolate"/><path d="M144.57,112.34c-2.91,3.16-.4,6.77,8.89,11.16,2.21-4.87.86-13-2.14-14.42S147.11,109.6,144.57,112.34Z" fill="#2e353a"/><path d="M131.2,122.28c2.36,8.37,3.32,13.38,8.54,16.81,7.86,5.15,17.49-1,17.68-9.91.16-8-3.72-20.35-12.75-21.92a11.85,11.85,0,0,0-13.47,15Z" fill="#b97964"/><path d="M144.37,121.86c.15.69.64,1.17,1.09,1.07s.69-.73.54-1.42-.63-1.17-1.08-1.08S144.27,121.17,144.37,121.86Z" fill="#2e353a"/><path d="M152.22,120.17c.15.69.64,1.17,1.09,1.07s.7-.73.55-1.43-.64-1.17-1.09-1.07S152.07,119.48,152.22,120.17Z" fill="#2e353a"/><path d="M149.73,121.05a25.16,25.16,0,0,0,4.58,5.19,4.08,4.08,0,0,1-3.17,1.33Z" fill="#a24e3f"/><path d="M141.69,119.85a.39.39,0,0,1-.48-.55,4.1,4.1,0,0,1,2.94-2.39.4.4,0,0,1,.47.32v0a.43.43,0,0,1-.35.47h0a3.27,3.27,0,0,0-2.3,1.91A.43.43,0,0,1,141.69,119.85Z" fill="#2e353a"/><path d="M155.22,116.75a.42.42,0,0,1-.42-.15,3.29,3.29,0,0,0-2.68-1.34.42.42,0,0,1-.45-.38.43.43,0,0,1,.37-.45,4.14,4.14,0,0,1,3.41,1.66.41.41,0,0,1-.07.58h0A.48.48,0,0,1,155.22,116.75Z" fill="#2e353a"/><path d="M133,114c4.26.5,4.7,4.88.5,14.25-4.85-2.26-9.12-9.32-7.75-12.34S129.23,113.6,133,114Z" fill="#2e353a"/><path d="M128.63,129.94a8.25,8.25,0,0,0,4.89,4c2.78.81,4.2-1.67,3.46-4.31-.67-2.38-2.93-5.67-5.73-5.32S127.37,127.57,128.63,129.94Z" fill="#b97964"/><path d="M126.08,115.24s-2.11-2.72,2-8.17S142.26,100,150,101.46s3.12,10,.37,11.42l.34-1.33a23,23,0,0,1-9.5,2.58l1.52-1.42S130.58,115.85,126.08,115.24Z" fill="#2e353a"/><path d="M150.63,129.87a20.69,20.69,0,0,0-.29,3.11l-.54.08c-2.48.32-3.73-.34-4.37-1.18a3.28,3.28,0,0,1-.59-1.4,3.08,3.08,0,0,1,0-.87,11.73,11.73,0,0,0,5,.36C150.3,129.92,150.63,129.87,150.63,129.87Z" fill="#2e353a"/><path d="M149.78,130l-.11.91c-2.32.31-4,.21-4.83-.4a3.08,3.08,0,0,1,0-.87A11.73,11.73,0,0,0,149.78,130Z" fill="#fff"/><path d="M149.8,133.06c-2.48.32-3.73-.34-4.37-1.18a8,8,0,0,1,2.81.18A3.09,3.09,0,0,1,149.8,133.06Z" fill="#a24e3f"/><path d="M135,148.62s7.22,5.43,11,6.68c0,0,1.78-3.35,1.05-6.1l5.47,3.81a13.51,13.51,0,0,1,0,7L146,156.3l-6.16,4.5s-9.11-2.64-9.64-8.17Z" fill="#407bff"/><path d="M135,148.62s7.22,5.43,11,6.68c0,0,1.78-3.35,1.05-6.1l5.47,3.81a13.51,13.51,0,0,1,0,7L146,156.3l-6.16,4.5s-9.11-2.64-9.64-8.17Z" fill="#fff" opacity="0.8"/><rect x="153.33" y="199.91" width="102.01" height="5.27" rx="1.17" fill="#407bff"/><path d="M255,201v2.93c0,.65-.18,1.17-.82,1.17H154.5c-.65,0-1.5-.52-1.5-1.17V201c0-.64.85-.9,1.5-.9h99.68C254.82,200.05,255,200.31,255,201Z" fill="#fff" opacity="0.5"/><path d="M195,201v2.93c0,.65-.22,1.17-.86,1.17H154.5c-.65,0-1.5-.52-1.5-1.17V201c0-.64.85-.9,1.5-.9h39.64C194.78,200.05,195,200.31,195,201Z" opacity="0.2" style="isolation:isolate"/><path d="M172.36,54.18a19.13,19.13,0,1,0-25.91,22.7,5.47,5.47,0,0,1,2.89,2.77l.65,1.48,18.41-5-.19-1.6a5.61,5.61,0,0,1,1.09-3.89A19.27,19.27,0,0,0,172.36,54.18Z" fill="#407bff"/><path d="M156,81.17s-2.77-8.7-7.66-12.54l2.71-.74.21-4.17,4.43,6.41-.36-7.8,4.37,7.11.44-4L164,64.35a22.22,22.22,0,0,0-1.07,15.12" fill="none" stroke="#fff" stroke-linecap="round" stroke-linejoin="round"/><path d="M159.48,79.71c-3.26.89-5.08,4.63-4.06,8.36s4.48,6,7.74,5.15,5.07-4.63,4.06-8.36S162.74,78.82,159.48,79.71Z" fill="#2e353a"/><path d="M165.76,89.79l-6.56,1.79a6.44,6.44,0,0,1-7.76-4.07l-2.15-6.06a.94.94,0,0,1,.63-1.21L168,75.31a.92.92,0,0,1,1.15.72l1.23,6.32A6.45,6.45,0,0,1,165.76,89.79Z" fill="#407bff"/><path d="M165.76,89.79l-6.56,1.79a6.44,6.44,0,0,1-7.76-4.07l-2.15-6.06a.94.94,0,0,1,.63-1.21L168,75.31a.92.92,0,0,1,1.15.72l1.23,6.32A6.45,6.45,0,0,1,165.76,89.79Z" fill="#fff" opacity="0.4"/><path d="M128.38,73.3a31,31,0,0,0-5.43-.51,20.33,20.33,0,0,0-2.71.15c-.45.07-.9.12-1.33.23-.22.06-.44.09-.65.17l-.63.2-.72.23.43-.63a24.12,24.12,0,0,0,2.87-5.8,18.26,18.26,0,0,0,.75-3.13,14.22,14.22,0,0,0,.14-1.59,14,14,0,0,0,0-1.59,11.49,11.49,0,0,0-.22-1.56l-.19-.77-.25-.74a9.55,9.55,0,0,0-.65-1.42,11.38,11.38,0,0,0-.83-1.33,14.53,14.53,0,0,0-1-1.19l-.55-.56-.6-.52c-.39-.36-.85-.64-1.26-1s-.9-.57-1.35-.85l-1-.67,1.11-.53a18.43,18.43,0,0,0,1.62-.88c.54-.32,1.06-.66,1.58-1a27.39,27.39,0,0,0,2.93-2.32c.45-.42.89-.86,1.32-1.3s.82-.93,1.19-1.41.73-1,1-1.51a13.73,13.73,0,0,0,.87-1.6,13.29,13.29,0,0,0,.68-1.67l.26-.87.19-.88a11.81,11.81,0,0,0,.2-1.79,13.52,13.52,0,0,0,0-1.8,13.86,13.86,0,0,0-.28-1.79l-.2-.88-.28-.87c-.17-.59-.44-1.14-.66-1.71s-.54-1.11-.81-1.66L122.42,23l2.74,1.76c.48.31,1,.63,1.57.92s1.1.57,1.66.82a25.65,25.65,0,0,0,3.44,1.32c.59.18,1.18.34,1.77.47s1.19.23,1.79.3a15.46,15.46,0,0,0,1.79.1,12.94,12.94,0,0,0,1.77-.11l.86-.16.85-.22a11.71,11.71,0,0,0,1.6-.66,6.87,6.87,0,0,0,.74-.44,4.27,4.27,0,0,0,.71-.49,13,13,0,0,0,1.3-1.16,12.41,12.41,0,0,0,1.11-1.38,12.37,12.37,0,0,0,.95-1.51c.31-.51.52-1.09.79-1.63s.43-1.14.65-1.71L149.76,16l.62,3.42a12.2,12.2,0,0,0,.43,1.65,16.23,16.23,0,0,0,.62,1.64,15.23,15.23,0,0,0,1.76,3,12.16,12.16,0,0,0,2.43,2.43,10.34,10.34,0,0,0,1.44.92,12.29,12.29,0,0,0,1.57.7,13.09,13.09,0,0,0,1.66.45,12.65,12.65,0,0,0,1.73.25,14.57,14.57,0,0,0,1.75,0,15.05,15.05,0,0,0,1.77-.13c.59-.06,1.18-.18,1.76-.27l1.75-.42,1.73-.52,1.71-.61,2.37-.85-1.36,2.11c-.25.37-.5.82-.73,1.24s-.44.88-.64,1.33a16.31,16.31,0,0,0-.93,2.79,12.07,12.07,0,0,0-.33,2.86,8.75,8.75,0,0,0,.49,2.79l.27.66.32.62a9.42,9.42,0,0,0,.83,1.16,9.73,9.73,0,0,0,1,1,11.17,11.17,0,0,0,1.17.88,11.38,11.38,0,0,0,1.26.76c.43.24.89.43,1.34.65l1.4.53,1.44.45,1,.32-.84.65A14.17,14.17,0,0,0,179,49.93a15.57,15.57,0,0,0-1.38,1.66,9.46,9.46,0,0,0-.61.9,8.62,8.62,0,0,0-.52.94,5.85,5.85,0,0,0-.44,1,5.79,5.79,0,0,0-.33,1c-.07.35-.19.69-.23,1.05l-.1,1.07c0,.36,0,.71.06,1.07a4.89,4.89,0,0,0,.18,1.07,6.4,6.4,0,0,0,.28,1l.41,1a5.89,5.89,0,0,0,.51,1l.56,1,.21.34h-.39a16.73,16.73,0,0,0-4.38.58,9.59,9.59,0,0,0-2.06.81,4.57,4.57,0,0,0-.47.29,2.83,2.83,0,0,0-.45.32,3.7,3.7,0,0,0-.42.37l-.39.41.37-.43a3,3,0,0,1,.4-.39,3.13,3.13,0,0,1,.44-.36c.15-.1.3-.23.46-.32a9.71,9.71,0,0,1,2.05-.93,16.38,16.38,0,0,1,4.45-.79l-.17.35-.62-1a6,6,0,0,1-.58-1l-.47-1.05a5.85,5.85,0,0,1-.34-1.1,4.84,4.84,0,0,1-.24-1.13c0-.38-.09-.77-.1-1.16l0-1.16c0-.39.14-.76.2-1.14a7.17,7.17,0,0,1,.32-1.12,5.93,5.93,0,0,1,.43-1.08,7.64,7.64,0,0,1,.52-1,10.85,10.85,0,0,1,.6-1,14.78,14.78,0,0,1,1.43-1.81,14.37,14.37,0,0,1,1.69-1.61l.19,1-1.51-.43-1.49-.53c-.49-.22-1-.4-1.46-.65a14.63,14.63,0,0,1-1.39-.79,13.66,13.66,0,0,1-1.31-1,10.59,10.59,0,0,1-1.17-1.15,9.09,9.09,0,0,1-1-1.32l-.41-.73-.33-.76A10,10,0,0,1,169.4,38a13.07,13.07,0,0,1,.29-3.25,18.15,18.15,0,0,1,.94-3.07q.3-.75.66-1.47c.25-.48.49-.93.8-1.42l1,1.26-1.78.65-1.81.56-1.86.46c-.63.1-1.25.24-1.89.31a17.72,17.72,0,0,1-1.93.16,15.89,15.89,0,0,1-2,0,12.9,12.9,0,0,1-1.94-.26,14.12,14.12,0,0,1-1.91-.5,14.71,14.71,0,0,1-1.82-.79,12.29,12.29,0,0,1-1.69-1.06,14,14,0,0,1-2.82-2.77,16.19,16.19,0,0,1-2-3.37,16.57,16.57,0,0,1-.71-1.81,15.23,15.23,0,0,1-.52-1.94l1.87.15c-.23.62-.44,1.25-.69,1.86s-.51,1.23-.86,1.81a14,14,0,0,1-1,1.73,16,16,0,0,1-1.28,1.6,12.56,12.56,0,0,1-1.54,1.37,6.24,6.24,0,0,1-.86.59,8.08,8.08,0,0,1-.9.52,13.43,13.43,0,0,1-1.93.78l-1,.25c-.34.07-.68.12-1,.17a15.51,15.51,0,0,1-2,.12,15,15,0,0,1-2-.13c-.67-.08-1.32-.21-2-.35s-1.29-.32-1.92-.52a27.54,27.54,0,0,1-3.66-1.44c-.6-.27-1.18-.57-1.75-.89a19.38,19.38,0,0,1-1.72-1l1.31-1.18c.29.6.6,1.18.86,1.79s.53,1.23.71,1.88l.3,1,.22,1a18.9,18.9,0,0,1,.3,2,17.36,17.36,0,0,1,0,2,13.75,13.75,0,0,1-.24,2l-.22,1-.3,1a15.35,15.35,0,0,1-.78,1.87,13.73,13.73,0,0,1-1,1.76c-.36.56-.77,1.1-1.18,1.62s-.87,1-1.33,1.49-.95.92-1.44,1.36a30.15,30.15,0,0,1-3.15,2.37c-.55.36-1.11.69-1.68,1s-1.15.62-1.78.9l.07-1.19c.47.31,1,.61,1.42.94s.92.67,1.33,1.07l.64.58.59.62a15.43,15.43,0,0,1,1.08,1.34,12.35,12.35,0,0,1,.89,1.48,11.7,11.7,0,0,1,.68,1.59l.25.83.18.84a12.27,12.27,0,0,1,.2,1.71,16.6,16.6,0,0,1-1.16,6.63,22.47,22.47,0,0,1-1.4,3,22,22,0,0,1-1.79,2.82l-.29-.4.67-.18a5.67,5.67,0,0,1,.69-.15c.45-.1.91-.13,1.37-.19a21.22,21.22,0,0,1,2.76,0A30.93,30.93,0,0,1,128.38,73.3Z" fill="#407bff"/><path d="M128.38,73.3a31,31,0,0,0-5.43-.51,20.33,20.33,0,0,0-2.71.15c-.45.07-.9.12-1.33.23-.22.06-.44.09-.65.17l-.63.2-.72.23.43-.63a24.12,24.12,0,0,0,2.87-5.8,18.26,18.26,0,0,0,.75-3.13,14.22,14.22,0,0,0,.14-1.59,14,14,0,0,0,0-1.59,11.49,11.49,0,0,0-.22-1.56l-.19-.77-.25-.74a9.55,9.55,0,0,0-.65-1.42,11.38,11.38,0,0,0-.83-1.33,14.53,14.53,0,0,0-1-1.19l-.55-.56-.6-.52c-.39-.36-.85-.64-1.26-1s-.9-.57-1.35-.85l-1-.67,1.11-.53a18.43,18.43,0,0,0,1.62-.88c.54-.32,1.06-.66,1.58-1a27.39,27.39,0,0,0,2.93-2.32c.45-.42.89-.86,1.32-1.3s.82-.93,1.19-1.41.73-1,1-1.51a13.73,13.73,0,0,0,.87-1.6,13.29,13.29,0,0,0,.68-1.67l.26-.87.19-.88a11.81,11.81,0,0,0,.2-1.79,13.52,13.52,0,0,0,0-1.8,13.86,13.86,0,0,0-.28-1.79l-.2-.88-.28-.87c-.17-.59-.44-1.14-.66-1.71s-.54-1.11-.81-1.66L122.42,23l2.74,1.76c.48.31,1,.63,1.57.92s1.1.57,1.66.82a25.65,25.65,0,0,0,3.44,1.32c.59.18,1.18.34,1.77.47s1.19.23,1.79.3a15.46,15.46,0,0,0,1.79.1,12.94,12.94,0,0,0,1.77-.11l.86-.16.85-.22a11.71,11.71,0,0,0,1.6-.66,6.87,6.87,0,0,0,.74-.44,4.27,4.27,0,0,0,.71-.49,13,13,0,0,0,1.3-1.16,12.41,12.41,0,0,0,1.11-1.38,12.37,12.37,0,0,0,.95-1.51c.31-.51.52-1.09.79-1.63s.43-1.14.65-1.71L149.76,16l.62,3.42a12.2,12.2,0,0,0,.43,1.65,16.23,16.23,0,0,0,.62,1.64,15.23,15.23,0,0,0,1.76,3,12.16,12.16,0,0,0,2.43,2.43,10.34,10.34,0,0,0,1.44.92,12.29,12.29,0,0,0,1.57.7,13.09,13.09,0,0,0,1.66.45,12.65,12.65,0,0,0,1.73.25,14.57,14.57,0,0,0,1.75,0,15.05,15.05,0,0,0,1.77-.13c.59-.06,1.18-.18,1.76-.27l1.75-.42,1.73-.52,1.71-.61,2.37-.85-1.36,2.11c-.25.37-.5.82-.73,1.24s-.44.88-.64,1.33a16.31,16.31,0,0,0-.93,2.79,12.07,12.07,0,0,0-.33,2.86,8.75,8.75,0,0,0,.49,2.79l.27.66.32.62a9.42,9.42,0,0,0,.83,1.16,9.73,9.73,0,0,0,1,1,11.17,11.17,0,0,0,1.17.88,11.38,11.38,0,0,0,1.26.76c.43.24.89.43,1.34.65l1.4.53,1.44.45,1,.32-.84.65A14.17,14.17,0,0,0,179,49.93a15.57,15.57,0,0,0-1.38,1.66,9.46,9.46,0,0,0-.61.9,8.62,8.62,0,0,0-.52.94,5.85,5.85,0,0,0-.44,1,5.79,5.79,0,0,0-.33,1c-.07.35-.19.69-.23,1.05l-.1,1.07c0,.36,0,.71.06,1.07a4.89,4.89,0,0,0,.18,1.07,6.4,6.4,0,0,0,.28,1l.41,1a5.89,5.89,0,0,0,.51,1l.56,1,.21.34h-.39a16.73,16.73,0,0,0-4.38.58,9.59,9.59,0,0,0-2.06.81,4.57,4.57,0,0,0-.47.29,2.83,2.83,0,0,0-.45.32,3.7,3.7,0,0,0-.42.37l-.39.41.37-.43a3,3,0,0,1,.4-.39,3.13,3.13,0,0,1,.44-.36c.15-.1.3-.23.46-.32a9.71,9.71,0,0,1,2.05-.93,16.38,16.38,0,0,1,4.45-.79l-.17.35-.62-1a6,6,0,0,1-.58-1l-.47-1.05a5.85,5.85,0,0,1-.34-1.1,4.84,4.84,0,0,1-.24-1.13c0-.38-.09-.77-.1-1.16l0-1.16c0-.39.14-.76.2-1.14a7.17,7.17,0,0,1,.32-1.12,5.93,5.93,0,0,1,.43-1.08,7.64,7.64,0,0,1,.52-1,10.85,10.85,0,0,1,.6-1,14.78,14.78,0,0,1,1.43-1.81,14.37,14.37,0,0,1,1.69-1.61l.19,1-1.51-.43-1.49-.53c-.49-.22-1-.4-1.46-.65a14.63,14.63,0,0,1-1.39-.79,13.66,13.66,0,0,1-1.31-1,10.59,10.59,0,0,1-1.17-1.15,9.09,9.09,0,0,1-1-1.32l-.41-.73-.33-.76A10,10,0,0,1,169.4,38a13.07,13.07,0,0,1,.29-3.25,18.15,18.15,0,0,1,.94-3.07q.3-.75.66-1.47c.25-.48.49-.93.8-1.42l1,1.26-1.78.65-1.81.56-1.86.46c-.63.1-1.25.24-1.89.31a17.72,17.72,0,0,1-1.93.16,15.89,15.89,0,0,1-2,0,12.9,12.9,0,0,1-1.94-.26,14.12,14.12,0,0,1-1.91-.5,14.71,14.71,0,0,1-1.82-.79,12.29,12.29,0,0,1-1.69-1.06,14,14,0,0,1-2.82-2.77,16.19,16.19,0,0,1-2-3.37,16.57,16.57,0,0,1-.71-1.81,15.23,15.23,0,0,1-.52-1.94l1.87.15c-.23.62-.44,1.25-.69,1.86s-.51,1.23-.86,1.81a14,14,0,0,1-1,1.73,16,16,0,0,1-1.28,1.6,12.56,12.56,0,0,1-1.54,1.37,6.24,6.24,0,0,1-.86.59,8.08,8.08,0,0,1-.9.52,13.43,13.43,0,0,1-1.93.78l-1,.25c-.34.07-.68.12-1,.17a15.51,15.51,0,0,1-2,.12,15,15,0,0,1-2-.13c-.67-.08-1.32-.21-2-.35s-1.29-.32-1.92-.52a27.54,27.54,0,0,1-3.66-1.44c-.6-.27-1.18-.57-1.75-.89a19.38,19.38,0,0,1-1.72-1l1.31-1.18c.29.6.6,1.18.86,1.79s.53,1.23.71,1.88l.3,1,.22,1a18.9,18.9,0,0,1,.3,2,17.36,17.36,0,0,1,0,2,13.75,13.75,0,0,1-.24,2l-.22,1-.3,1a15.35,15.35,0,0,1-.78,1.87,13.73,13.73,0,0,1-1,1.76c-.36.56-.77,1.1-1.18,1.62s-.87,1-1.33,1.49-.95.92-1.44,1.36a30.15,30.15,0,0,1-3.15,2.37c-.55.36-1.11.69-1.68,1s-1.15.62-1.78.9l.07-1.19c.47.31,1,.61,1.42.94s.92.67,1.33,1.07l.64.58.59.62a15.43,15.43,0,0,1,1.08,1.34,12.35,12.35,0,0,1,.89,1.48,11.7,11.7,0,0,1,.68,1.59l.25.83.18.84a12.27,12.27,0,0,1,.2,1.71,16.6,16.6,0,0,1-1.16,6.63,22.47,22.47,0,0,1-1.4,3,22,22,0,0,1-1.79,2.82l-.29-.4.67-.18a5.67,5.67,0,0,1,.69-.15c.45-.1.91-.13,1.37-.19a21.22,21.22,0,0,1,2.76,0A30.93,30.93,0,0,1,128.38,73.3Z" fill="#fff" opacity="0.7"/></svg>